<?xml version="1.0" encoding="UTF-8" standalone="no"?>
<!DOCTYPE svg PUBLIC "-//W3C//DTD SVG 1.1//EN"
 "http://www.w3.org/Graphics/SVG/1.1/DTD/svg11.dtd">
<!-- Generated by graphviz version 7.1.0 (20230121.1956)
 -->
<!-- Title: G Pages: 1 -->
<svg width="367pt" height="478pt"
 viewBox="0.00 0.00 366.86 478.00" xmlns="http://www.w3.org/2000/svg" xmlns:xlink="http://www.w3.org/1999/xlink">
<g id="graph0" class="graph" transform="scale(1 1) rotate(0) translate(4 474)">
<title>G</title><style>.edge>path:hover{stroke-width:8}</style>
<polygon fill="white" stroke="none" points="-4,4 -4,-474 362.86,-474 362.86,4 -4,4"/>
<!-- featurestore -->
<g id="node1" class="node">
<title>featurestore</title><style>.edge>path:hover{stroke-width:8}</style>
<polygon fill="#799640" stroke="black" points="238.86,-36 235.86,-40 214.86,-40 211.86,-36 170.86,-36 170.86,0 238.86,0 238.86,-36"/>
<text text-anchor="middle" x="204.86" y="-15.5" font-family="Helvetica,sans-Serif" font-size="10.00" fill="#000000">featurestore</text>
</g>
<!-- config -->
<g id="node2" class="node">
<title>config</title><style>.edge>path:hover{stroke-width:8}</style>
<polygon fill="#ef0606" stroke="black" points="66.86,-289 63.86,-293 42.86,-293 39.86,-289 12.86,-289 12.86,-253 66.86,-253 66.86,-289"/>
<text text-anchor="middle" x="39.86" y="-268.5" font-family="Helvetica,sans-Serif" font-size="10.00" fill="#ffffff">config</text>
</g>
<!-- config&#45;&gt;featurestore -->
<g id="edge2" class="edge">
<title>config&#45;&gt;featurestore</title><style>.edge>path:hover{stroke-width:8}</style>
<path fill="none" stroke="black" d="M56.86,-198C92.73,-134.69 192.9,-199.78 204.86,-128"/>
<path fill="none" stroke="black" d="M204.86,-126C208.73,-102.76 194.23,-94.02 204.86,-73"/>
</g>
<!-- dataacceslayer -->
<g id="node3" class="node">
<title>dataacceslayer</title><style>.edge>path:hover{stroke-width:8}</style>
<polygon fill="#e99f0c" stroke="black" points="98.36,-145 95.36,-149 74.36,-149 71.36,-145 15.36,-145 15.36,-109 98.36,-109 98.36,-145"/>
<text text-anchor="middle" x="56.86" y="-124.5" font-family="Helvetica,sans-Serif" font-size="10.00" fill="#000000">dataacceslayer</text>
</g>
<!-- config&#45;&gt;dataacceslayer -->
<g id="edge1" class="edge">
<title>config&#45;&gt;dataacceslayer</title><style>.edge>path:hover{stroke-width:8}</style>
<path fill="none" stroke="black" d="M56.86,-198C63.9,-185.57 64.48,-169.79 63.04,-156.37"/>
<polygon fill="#ef0606" stroke="black" points="66.55,-156.18 61.59,-146.81 59.63,-157.22 66.55,-156.18"/>
<path fill="none" stroke="black" d="M41.39,-252.62C43.31,-237.83 47.55,-216.43 56.86,-200"/>
</g>
<!-- dataacceslayer&#45;&gt;featurestore -->
<g id="edge3" class="edge">
<title>dataacceslayer&#45;&gt;featurestore</title><style>.edge>path:hover{stroke-width:8}</style>
<path fill="none" stroke="black" d="M204.86,-72C208.64,-64.52 209.73,-55.65 209.57,-47.34"/>
<polygon fill="#e99f0c" stroke="black" points="213.08,-47.33 208.77,-37.65 206.1,-47.9 213.08,-47.33"/>
<path fill="none" stroke="black" d="M98.53,-125.42C135.22,-122.29 185.71,-110.88 204.86,-73"/>
</g>
<!-- loguru -->
<g id="node4" class="node">
<title>loguru</title><style>.edge>path:hover{stroke-width:8}</style>
<polygon fill="#19e619" stroke="black" points="66.86,-398 63.86,-402 42.86,-402 39.86,-398 12.86,-398 12.86,-362 66.86,-362 66.86,-398"/>
<text text-anchor="middle" x="39.86" y="-377.5" font-family="Helvetica,sans-Serif" font-size="10.00" fill="#000000">loguru</text>
</g>
<!-- loguru&#45;&gt;featurestore -->
<g id="edge6" class="edge">
<title>loguru&#45;&gt;featurestore</title><style>.edge>path:hover{stroke-width:8}</style>
<path fill="none" stroke="black" d="M39.86,-325C41.1,-302.41 63.8,-308.15 75.86,-289 102.97,-245.94 81.43,-220.22 113.86,-181 143.68,-144.93 196.6,-174.07 204.86,-128"/>
</g>
<!-- loguru&#45;&gt;config -->
<g id="edge4" class="edge">
<title>loguru&#45;&gt;config</title><style>.edge>path:hover{stroke-width:8}</style>
<path fill="none" stroke="black" d="M39.86,-325C39.86,-317.06 39.86,-308.44 39.86,-300.52"/>
<polygon fill="#19e619" stroke="black" points="43.36,-300.7 39.86,-290.7 36.36,-300.7 43.36,-300.7"/>
</g>
<!-- loguru&#45;&gt;dataacceslayer -->
<g id="edge5" class="edge">
<title>loguru&#45;&gt;dataacceslayer</title><style>.edge>path:hover{stroke-width:8}</style>
<path fill="none" stroke="black" d="M39.86,-325C39.86,-302.37 12.52,-309.91 3.86,-289 -2.26,-274.22 0.67,-268.68 3.86,-253 11.01,-217.79 28.44,-180.19 41.37,-155.53"/>
<polygon fill="#19e619" stroke="black" points="44.4,-157.28 46.05,-146.82 38.23,-153.97 44.4,-157.28"/>
<path fill="none" stroke="black" d="M39.38,-361.8C39.21,-351.42 39.2,-337.94 39.86,-326"/>
</g>
<!-- numpy -->
<g id="node5" class="node">
<title>numpy</title><style>.edge>path:hover{stroke-width:8}</style>
<polygon fill="#06f9a8" stroke="black" points="248.86,-470 245.86,-474 224.86,-474 221.86,-470 194.86,-470 194.86,-434 248.86,-434 248.86,-470"/>
<text text-anchor="middle" x="221.86" y="-449.5" font-family="Helvetica,sans-Serif" font-size="10.00" fill="#000000">numpy</text>
</g>
<!-- numpy&#45;&gt;featurestore -->
<g id="edge7" class="edge">
<title>numpy&#45;&gt;featurestore</title><style>.edge>path:hover{stroke-width:8}</style>
<path fill="none" stroke="black" d="M204.86,-198C208.86,-167.15 199.68,-158.68 204.86,-128"/>
<path fill="none" stroke="black" d="M166.86,-270C169.74,-234.72 200.3,-235.11 204.86,-200"/>
</g>
<!-- pandas -->
<g id="node6" class="node">
<title>pandas</title><style>.edge>path:hover{stroke-width:8}</style>
<polygon fill="#06a1ef" stroke="black" points="248.86,-398 245.86,-402 224.86,-402 221.86,-398 194.86,-398 194.86,-362 248.86,-362 248.86,-398"/>
<text text-anchor="middle" x="221.86" y="-377.5" font-family="Helvetica,sans-Serif" font-size="10.00" fill="#ffffff">pandas</text>
</g>
<!-- numpy&#45;&gt;pandas -->
<g id="edge8" class="edge">
<title>numpy&#45;&gt;pandas</title><style>.edge>path:hover{stroke-width:8}</style>
<path fill="none" stroke="black" d="M221.86,-433.7C221.86,-426.41 221.86,-417.73 221.86,-409.54"/>
<polygon fill="#06f9a8" stroke="black" points="225.36,-409.62 221.86,-399.62 218.36,-409.62 225.36,-409.62"/>
</g>
<!-- pandera -->
<g id="node7" class="node">
<title>pandera</title><style>.edge>path:hover{stroke-width:8}</style>
<polygon fill="#1818dd" stroke="black" points="286.86,-217 283.86,-221 262.86,-221 259.86,-217 232.86,-217 232.86,-181 286.86,-181 286.86,-217"/>
<text text-anchor="middle" x="259.86" y="-196.5" font-family="Helvetica,sans-Serif" font-size="10.00" fill="#ffffff">pandera</text>
</g>
<!-- numpy&#45;&gt;pandera -->
<g id="edge9" class="edge">
<title>numpy&#45;&gt;pandera</title><style>.edge>path:hover{stroke-width:8}</style>
<path fill="none" stroke="black" d="M237.42,-433.76C245.16,-424.01 253.74,-411.16 257.86,-398 275.97,-340.15 270.08,-268.05 264.66,-228.78"/>
<polygon fill="#06f9a8" stroke="black" points="268.13,-228.35 263.2,-218.97 261.21,-229.37 268.13,-228.35"/>
</g>
<!-- sklearn -->
<g id="node9" class="node">
<title>sklearn</title><style>.edge>path:hover{stroke-width:8}</style>
<polygon fill="#db0594" stroke="black" points="176.86,-217 173.86,-221 152.86,-221 149.86,-217 122.86,-217 122.86,-181 176.86,-181 176.86,-217"/>
<text text-anchor="middle" x="149.86" y="-196.5" font-family="Helvetica,sans-Serif" font-size="10.00" fill="#ffffff">sklearn</text>
</g>
<!-- numpy&#45;&gt;sklearn -->
<g id="edge10" class="edge">
<title>numpy&#45;&gt;sklearn</title><style>.edge>path:hover{stroke-width:8}</style>
<path fill="none" stroke="black" d="M207.03,-433.5C199.49,-423.68 190.89,-410.84 185.86,-398 165.21,-345.26 162.76,-328.48 166.86,-272"/>
<path fill="none" stroke="black" d="M166.86,-270C168.01,-255.97 164.86,-240.75 160.97,-228.09"/>
<polygon fill="#06f9a8" stroke="black" points="164.32,-227.07 157.78,-218.73 157.69,-229.33 164.32,-227.07"/>
</g>
<!-- pandas&#45;&gt;featurestore -->
<g id="edge11" class="edge">
<title>pandas&#45;&gt;featurestore</title><style>.edge>path:hover{stroke-width:8}</style>
<path fill="none" stroke="black" d="M204.86,-270C203.44,-238.92 200.86,-230.85 204.86,-200"/>
</g>
<!-- pandas&#45;&gt;pandera -->
<g id="edge12" class="edge">
<title>pandas&#45;&gt;pandera</title><style>.edge>path:hover{stroke-width:8}</style>
<path fill="none" stroke="black" d="M204.86,-270C204.86,-252.67 215.41,-237.09 227.27,-225.06"/>
<polygon fill="#06a1ef" stroke="black" points="229.54,-227.72 234.47,-218.34 224.77,-222.6 229.54,-227.72"/>
</g>
<!-- pandas&#45;&gt;sklearn -->
<g id="edge13" class="edge">
<title>pandas&#45;&gt;sklearn</title><style>.edge>path:hover{stroke-width:8}</style>
<path fill="none" stroke="black" d="M204.86,-270C204.86,-252.67 194.31,-237.09 182.45,-225.06"/>
<polygon fill="#06a1ef" stroke="black" points="184.95,-222.6 175.25,-218.34 180.18,-227.72 184.95,-222.6"/>
<path fill="none" stroke="black" d="M217.39,-361.71C212.35,-340.67 204.86,-303.98 204.86,-272"/>
</g>
<!-- pandera&#45;&gt;featurestore -->
<g id="edge14" class="edge">
<title>pandera&#45;&gt;featurestore</title><style>.edge>path:hover{stroke-width:8}</style>
<path fill="none" stroke="black" d="M233.34,-180.5C217.61,-167.74 201.35,-149.04 204.86,-128"/>
</g>
<!-- pydantic -->
<g id="node8" class="node">
<title>pydantic</title><style>.edge>path:hover{stroke-width:8}</style>
<polygon fill="#9d3bce" stroke="black" points="358.86,-398 355.86,-402 334.86,-402 331.86,-398 304.86,-398 304.86,-362 358.86,-362 358.86,-398"/>
<text text-anchor="middle" x="331.86" y="-377.5" font-family="Helvetica,sans-Serif" font-size="10.00" fill="#ffffff">pydantic</text>
</g>
<!-- pydantic&#45;&gt;featurestore -->
<g id="edge15" class="edge">
<title>pydantic&#45;&gt;featurestore</title><style>.edge>path:hover{stroke-width:8}</style>
<path fill="none" stroke="black" d="M314.86,-270C304.29,-230.96 319.58,-213.76 295.86,-181 268.4,-143.09 197.17,-174.17 204.86,-128"/>
</g>
<!-- pydantic&#45;&gt;pandera -->
<g id="edge16" class="edge">
<title>pydantic&#45;&gt;pandera</title><style>.edge>path:hover{stroke-width:8}</style>
<path fill="none" stroke="black" d="M314.86,-270C311.69,-252.83 300.61,-237.19 289.22,-225.07"/>
<polygon fill="#9d3bce" stroke="black" points="292.01,-222.9 282.45,-218.33 287.07,-227.86 292.01,-222.9"/>
<path fill="none" stroke="black" d="M329.36,-361.53C326.25,-340.31 320.66,-303.45 314.86,-272"/>
</g>
<!-- sklearn&#45;&gt;featurestore -->
<g id="edge17" class="edge">
<title>sklearn&#45;&gt;featurestore</title><style>.edge>path:hover{stroke-width:8}</style>
<path fill="none" stroke="black" d="M171.91,-180.5C185.65,-167.74 201.35,-149.04 204.86,-128"/>
</g>
</g>
</svg>
